<?xml version="1.0" encoding="utf-8"?>
<svg version="1.1" id="Livello_1" xmlns="http://www.w3.org/2000/svg" xmlns:xlink="http://www.w3.org/1999/xlink" x="0px" y="0px"
	 viewBox="0 0 24 24" style="enable-background:new 0 0 24 24;" xml:space="preserve">
<style type="text/css">
	.st0{fill:none;}
</style>
<path class="st0" d="M0,0h24v24H0V0z"/>
<path d="M19.7,4C17,2.2,13.8,3,12,5.1C10.2,3,7,2.2,4.3,4C2.9,4.9,2.1,6.6,2,8.3c-0.1,3.9,3.3,7,8.6,11.8l0.1,0.1
	c0.8,0.7,1.9,0.7,2.7,0l0.1-0.1c5.3-4.8,8.7-7.9,8.6-11.7C21.9,6.6,21.1,4.9,19.7,4z M12.1,18.5l-0.1,0l-0.1,0
	C7,14.1,3.8,11.2,4,8.2c0.1-0.7,0.3-1.3,0.8-1.9c1.8-2.2,4.8-1.4,6,0.4c0.3,0.4,0.7,0.6,1.1,0.6h0.2c0.5,0,0.9-0.3,1.2-0.6
	c1.2-1.8,4.2-2.6,6-0.4c0.4,0.5,0.7,1.2,0.8,1.9C20.2,11.2,17,14.1,12.1,18.5z"/>
</svg>
